<svg width="206" height="23" viewBox="0 0 206 23" fill="none" xmlns="http://www.w3.org/2000/svg">
<g clip-path="url(#clip0_1489_8738)">
<path d="M17.0981 17.5453C15.5531 15.2523 13.6647 14.4184 11.8451 13.5846C10.8837 13.1677 9.95672 12.7508 9.09839 12.1254C8.44605 11.6737 7.89672 10.9094 7.27872 10.1103C6.45472 9.06798 5.52772 7.85196 4.25739 7.05287L4.05139 6.9139L9.81939 2.60574C11.1241 3.16163 12.1541 4.48187 13.0467 5.66314C13.6304 6.42749 14.2141 7.1571 14.7634 7.57402C14.7977 7.60876 15.4844 8.06042 15.4844 8.06042L13.5617 9.51964C13.3214 9.38067 13.1154 9.24169 12.9094 9.10272C11.9481 8.40786 10.9867 6.56647 9.88805 5.83686L7.99972 7.26133C9.33872 8.16465 10.0597 9.83233 11.0211 10.4924C13.4931 12.2644 16.7204 12.4033 19.0894 15.9471C19.7074 15.4607 20.3254 14.9743 20.9434 14.5227C19.3641 12.1601 17.3727 11.3263 15.5187 10.4924L19.0551 7.71299C18.1281 7.29607 17.2697 6.9139 16.4801 6.35801C15.7934 5.8716 15.2441 5.10725 14.6604 4.27341C13.4931 2.60574 12.1541 0.729607 9.30439 0C9.16705 0.277946 8.78939 0.903323 7.75939 1.59819L0.206055 7.46979C2.71239 8.23414 3.98272 10.006 5.08139 11.6042C5.66505 12.4381 6.24872 13.2024 6.90105 13.6888C7.72505 14.2795 8.65205 14.6964 9.61339 15.1133C11.5017 15.9471 13.4244 16.8157 15.0037 19.1782C15.2097 19.0045 15.4501 18.8308 15.6904 18.6571C15.7591 18.5876 16.3084 18.136 17.0981 17.5453Z" fill="black"/>
<path d="M13.0467 20.8114C11.5017 18.4836 9.61333 17.6497 7.75933 16.8159C6.798 16.399 5.871 15.9821 5.01267 15.3567C4.05133 14.6618 3.12433 13.3068 2.266 12.0908L0 13.828C0.618 14.3491 1.09867 14.9745 1.545 15.5304C1.957 16.0515 2.369 16.5727 2.81533 16.8854C3.57067 17.4413 4.46333 17.8234 5.42467 18.2751C7.45033 19.1784 9.75067 20.2207 11.33 23.0002C11.3643 22.9307 11.3987 22.896 11.433 22.8265C11.536 22.5138 11.948 21.8537 13.0467 20.8114Z" fill="black"/>
<path d="M26.4368 19.9425C28.1535 20.4637 30.1105 20.7764 31.9988 20.7764C36.2905 20.7764 40.5478 19.0044 40.5478 15.8776C40.5478 10.3186 29.3208 11.5347 29.3208 7.05278C29.3208 5.28088 30.9345 4.1691 33.6812 4.1691C36.2905 4.1691 37.9728 4.93345 38.3848 6.63587H39.2432L38.6595 3.54372C37.2175 3.40475 35.7068 3.19629 34.2305 3.19629C29.8015 3.19629 26.4368 4.82922 26.4368 7.95611C26.4368 13.654 37.2175 12.3338 37.2175 16.8504C37.2175 18.7612 35.0202 19.8383 32.2392 19.8383C29.2178 19.8383 27.1922 18.2748 26.5742 16.4682H25.7158L26.4368 19.9425Z" fill="black"/>
<path d="M46.5559 20.394C48.3756 20.3592 48.3413 20.394 50.0922 20.394V3.50879C48.2726 3.54353 44.9423 3.54353 43.2256 3.50879V4.55109C45.1483 4.58583 46.5559 4.58583 46.5559 6.28825V20.394Z" fill="black"/>
<path d="M81.885 20.7762H83.224L93.5926 3.50879C92.4596 3.54353 88.8203 3.54353 87.4126 3.50879V4.55109C88.7173 4.58583 91.155 4.13417 90.331 5.90607L83.6016 17.5103L75.2586 3.50879C73.7136 3.50879 70.864 3.54353 69.1816 3.50879V4.55109C71.585 4.55109 72.306 5.14172 73.3016 6.4967L81.885 20.7762Z" fill="black"/>
<path d="M61.5941 3.50879C58.0578 3.54353 56.9592 3.54353 54.5215 3.50879V4.55109C57.4055 4.62057 57.9891 4.7248 57.9891 6.70516V20.394C60.7015 20.3592 69.9028 20.394 73.5421 20.394L75.0528 16.5027H74.1602C72.7525 19.1085 71.1388 19.039 67.5682 19.1432H61.5941V3.50879Z" fill="black"/>
<path d="M171.77 11.9518C174.379 11.9518 175.993 12.6814 176.474 13.9322H177.332L176.748 10.84H167.959V4.69047H173.864C176.474 4.69047 178.087 5.42008 178.568 6.67083H179.426L178.843 3.54395C178.843 3.54395 163.393 3.57869 160.955 3.54395V4.58624C163.839 4.65573 164.423 4.75996 164.423 6.74032L164.388 20.4291C167.101 20.3944 176.336 20.4291 179.976 20.4291L181.486 16.5032H180.559C179.152 19.1089 177.572 19.0394 174.002 19.1436H167.925V11.9518C167.959 11.9518 171.564 11.9518 171.77 11.9518Z" fill="black"/>
<path d="M107.189 11.9518C109.798 11.9518 111.412 12.6814 111.893 13.9322H112.751L112.167 10.84H103.378V4.69047H109.283C111.893 4.69047 113.506 5.42008 113.987 6.67083H114.845L114.262 3.54395C114.262 3.54395 98.8117 3.57869 96.374 3.54395V4.58624C99.258 4.65573 99.8417 4.75996 99.8417 6.74032L99.8074 20.4291C102.52 20.3944 111.755 20.4291 115.395 20.4291L116.905 16.5032H115.978C114.571 19.1089 112.991 19.0394 109.421 19.1436H103.378V11.9518C103.378 11.9518 106.983 11.9518 107.189 11.9518Z" fill="black"/>
<path d="M188.833 12.9242L192.266 5.90607L196.18 12.9242H188.833ZM196.798 14.036L200.335 20.394C201.88 20.394 204.008 20.394 204.008 20.394L194.532 3.50879L187.597 3.54353V4.55109C187.597 4.55109 191.82 4.2384 190.309 6.98311L183.168 20.4287C184.301 20.394 187.734 20.394 189.142 20.4287V19.3864C187.837 19.3517 185.503 19.5602 186.121 18.2052L188.215 14.0707L196.798 14.036Z" fill="black"/>
<path d="M158.345 15.9469C158.174 10.388 147.118 11.604 147.118 7.12212C147.118 5.35022 148.732 4.23843 151.479 4.23843C154.088 4.23843 155.77 5.00279 156.182 6.7052H157.041L156.457 3.61306C154.981 3.47408 153.504 3.26562 151.994 3.26562C147.565 3.26562 144.2 4.89856 144.2 8.02544C144.2 13.7233 154.912 12.4031 154.981 16.9197C155.015 19.0043 151.307 20.4983 146.912 20.533C143.376 20.5677 140.389 19.4212 137.471 16.5028L132.389 12.0557C135.308 11.7082 137.574 9.97106 137.574 7.92121C137.574 6.2188 136.029 3.6478 129.162 3.6478C126.827 3.6478 120.75 3.68254 118.725 3.6478V4.6901C120.647 4.72484 122.055 4.72484 122.055 6.42726V20.533C123.875 20.4983 125.694 20.533 125.626 20.533L125.66 12.5421H128.99L133.66 16.5723C135.857 18.4484 138.02 21.4016 146.226 21.61C151.41 21.6795 158.448 20.2551 158.345 15.9469ZM133.763 8.02544C133.763 9.7626 132.012 11.465 127.514 11.465C126.896 11.465 126.141 11.4303 125.591 11.3608V4.79433C126.244 4.72484 126.862 4.65535 127.789 4.65535C132.115 4.62061 133.763 5.90611 133.763 8.02544Z" fill="black"/>
<path d="M203.802 7.2265C202.806 7.2265 202.016 6.42741 202.016 5.41985C202.016 4.4123 202.806 3.61321 203.802 3.61321C204.797 3.61321 205.587 4.4123 205.587 5.41985C205.553 6.42741 204.763 7.2265 203.802 7.2265ZM203.802 7.64342C205.003 7.64342 205.999 6.63587 205.999 5.41985C205.999 4.20384 205.003 3.19629 203.802 3.19629C202.6 3.19629 201.604 4.20384 201.604 5.41985C201.57 6.67061 202.566 7.64342 203.802 7.64342ZM204.317 5.62831C204.729 5.59357 204.969 5.41985 204.969 4.96819C204.969 4.72499 204.9 4.48179 204.694 4.34281C204.523 4.23859 204.248 4.23859 204.042 4.23859H202.909V6.63587H203.39V5.62831H203.87L204.385 6.63587H204.935L204.317 5.62831ZM203.355 5.28088V4.58602H203.939C204.179 4.58602 204.523 4.58602 204.523 4.89871C204.523 5.2114 204.351 5.28088 204.076 5.24614H203.355V5.28088Z" fill="black"/>
</g>
<defs>
<clipPath id="clip0_1489_8738">
<rect width="206" height="23" fill="white"/>
</clipPath>
</defs>
</svg>
